<svg
   width="85.599998mm"
   height="53.98mm"
   viewBox="0 0 85.599998 53.98"
   xmlns="http://www.w3.org/2000/svg"
   xmlns:svg="http://www.w3.org/2000/svg">

  <g>
    <path fill="none" stroke="#858585" stroke-width="0.545212" stroke-linecap="butt" stroke-linejoin="miter" stroke-miterlimit="4" stroke-dasharray="0.545212 0.545212" stroke-dashoffset="0" stroke-opacity="1"
       d="M 0,10.272606 H 85.6"/>
       
    <path fill="none" stroke="#858585" stroke-width="0.545212" stroke-linecap="butt" stroke-linejoin="miter" stroke-miterlimit="4" stroke-dasharray="0.545212 0.545212" stroke-dashoffset="0" stroke-opacity="1"
       d="M 0,20.272606 H 85.6"/>
       
    <path fill="none" stroke="#858585" stroke-width="0.545212" stroke-linecap="butt" stroke-linejoin="miter" stroke-miterlimit="4" stroke-dasharray="0.545212 0.545212" stroke-dashoffset="0" stroke-opacity="1"
       d="M 0,30.272606 H 85.6"/>
       
    <path fill="none" stroke="#858585" stroke-width="0.545212" stroke-linecap="butt" stroke-linejoin="miter" stroke-miterlimit="4" stroke-dasharray="0.545212 0.545212" stroke-dashoffset="0" stroke-opacity="1"
       d="M 0,40.272606 H 85.6"/>
       
    <path fill="none" stroke="#858585" stroke-width="0.545212" stroke-linecap="butt" stroke-linejoin="miter" stroke-miterlimit="4" stroke-dasharray="0.545212 0.545212" stroke-dashoffset="0" stroke-opacity="1"
       d="M 0,50.272606 H 85.600005"/>
       
    <path fill="none" stroke="#858585" stroke-width="0.264583px" stroke-linecap="butt" stroke-linejoin="miter" stroke-opacity="1"
       d="M 80.132284,0 V 53.98"/>
       
    <path fill="none" stroke="#858585" stroke-width="0.264583px" stroke-linecap="butt" stroke-linejoin="miter" stroke-opacity="1"
       d="M 10.132291,-1e-7 V 53.98"/>
       
    <path fill="none" stroke="#858585" stroke-width="0.264583px" stroke-linecap="butt" stroke-linejoin="miter" stroke-opacity="1"
       d="M 20.132291,-1e-7 V 53.98"/>
       
    <path fill="none" stroke="#858585" stroke-width="0.264583px" stroke-linecap="butt" stroke-linejoin="miter" stroke-opacity="1"
       d="M 30.132291,-3.0000001e-7 V 53.98"/>
       
    <path fill="none" stroke="#858585" stroke-width="0.264583px" stroke-linecap="butt" stroke-linejoin="miter" stroke-opacity="1"
       d="M 40.304753,-3.0000001e-7 V 53.98"/>
       
    <path fill="none" stroke="#858585" stroke-width="0.264583px" stroke-linecap="butt" stroke-linejoin="miter" stroke-opacity="1"
       d="M 50.132291,-3.0000001e-7 V 53.98"/>
       
    <path fill="none" stroke="#858585" stroke-width="0.264583px" stroke-linecap="butt" stroke-linejoin="miter" stroke-opacity="1"
       d="M 60.132291,-4e-7 V 53.98"/>
       
    <path fill="none" stroke="#858585" stroke-width="0.264583px" stroke-linecap="butt" stroke-linejoin="miter" stroke-opacity="1"
       d="M 70.132291,-4e-7 V 53.98"/>
       

      <g>
         <path fill="#e46c8b" stroke-linecap="round"
            d="M 10.132812,19.167969 C 9.6734013,19.168228 9.3010399,19.540589 9.3007812,20 l 1.874e-4,30.546 H 10.965031 L 10.964844,20 c -2.59e-4,-0.459411 -0.372621,-0.831773 -0.832032,-0.832031 z"/>
         
         <path fill="#5967ff" stroke-linecap="round"
            d="M 10.132812,29.167969 C 9.6726387,29.167149 9.2990866,29.539826 9.2988281,30 V 50.546091 L 10.964844,50.546 V 30 c -2.59e-4,-0.459411 -0.372621,-0.831773 -0.832032,-0.832031 z"/>
      </g>
    
      <g transform="translate(10.000172,3.1e-5)">
         <path fill="#e46c8b" stroke-linecap="round"
            d="m 10.131835,12.288802 c -0.4594103,2.59e-4 -0.8317717,0.37262 -0.8320304,0.832031 L 9.299992,50.546 h 1.664062 l -1.87e-4,-37.425167 c -2.59e-4,-0.459411 -0.372621,-0.831773 -0.832032,-0.832031 z"/>
         
         <path fill="#5967ff" stroke-linecap="round"
            d="m 10.132905,19.807645 c -0.4601728,-8.2e-4 -0.8337249,0.371857 -0.8339834,0.832031 V 50.546091 L 10.964937,50.546 V 20.639676 c -2.59e-4,-0.459411 -0.372621,-0.831773 -0.832032,-0.832031 z"/>
      </g>

      <path fill="#e46c8b" stroke-linecap="round"
         d="m 30.159667,35.04314 c -0.459411,2.59e-4 -0.831772,0.37262 -0.832031,0.832031 l 1.88e-4,14.671002 h 1.664062 L 30.991699,35.875171 C 30.99144,35.41576 30.619078,35.043398 30.159667,35.04314 Z"/>
      
      <path fill="#5967ff" stroke-linecap="round"
         d="m 30.159667,40.005307 c -0.460173,-8.2e-4 -0.833725,0.371857 -0.833984,0.832031 v 9.708926 l 1.666016,-9.1e-5 v -9.708835 c -2.59e-4,-0.459411 -0.372621,-0.831773 -0.832032,-0.832031 z"/>
      
      <path fill="#e46c8b" stroke-linecap="round"
         d="m 40.304659,20.2265 c -0.459412,2.59e-4 -0.831772,0.37262 -0.832031,0.832032 l 1.88e-4,29.487672 h 1.664062 L 41.136691,21.058532 C 41.136432,20.59912 40.764069,20.226758 40.304659,20.2265 Z"/>
      
      <path fill="#5967ff" stroke-linecap="round"
         d="m 40.305729,28.274514 c -0.460173,-8.2e-4 -0.833725,0.371857 -0.833984,0.832032 v 21.439749 l 1.666016,-9.1e-5 V 29.106546 c -2.59e-4,-0.459412 -0.372621,-0.831774 -0.832032,-0.832032 z"/>
      
      <path fill="#e46c8b" stroke-linecap="round"
         d="m 50.144231,29.751473 c -0.459411,2.59e-4 -0.831772,0.37262 -0.832031,0.832031 l 1.88e-4,19.962669 h 1.664062 l -1.87e-4,-19.962669 c -2.59e-4,-0.459411 -0.372621,-0.831773 -0.832032,-0.832031 z"/>
      
      <path fill="#5967ff" stroke-linecap="round"
         d="m 50.144231,32.343142 c -0.460173,-8.2e-4 -0.833725,0.371857 -0.833984,0.832031 v 17.371091 l 1.666016,-9.1e-5 v -17.371 C 50.976004,32.715762 50.603642,32.3434 50.144231,32.343142 Z"/>
      
      <path fill="#e46c8b" stroke-linecap="round"
         d="m 60.071505,29.7515 c -0.459411,2.59e-4 -0.831772,0.37262 -0.832031,0.832032 l 1.88e-4,19.962672 h 1.664062 L 60.903537,30.583532 C 60.903278,30.12412 60.530916,29.751758 60.071505,29.7515 Z"/>
      
      <path fill="#5967ff" stroke-linecap="round"
         d="m 60.071505,37.270347 c -0.460173,-8.2e-4 -0.833725,0.371857 -0.833984,0.832032 v 12.443916 l 1.666016,-9.1e-5 V 38.102379 c -2.59e-4,-0.459412 -0.372621,-0.831774 -0.832032,-0.832032 z"/>
  </g>
</svg>
