<svg
   width="85.599998mm"
   height="53.98mm"
   viewBox="0 0 85.599998 53.98"
   version="1.1"
   xmlns="http://www.w3.org/2000/svg"
   xmlns:svg="http://www.w3.org/2000/svg">
   
   <g id="g125">
      <!-- Linhas horizontais --> 

      <path fill="none" stroke="#858585" stroke-width="0.526389" stroke-linecap="butt" stroke-linejoin="miter" stroke-miterlimit="4" stroke-dasharray="0.545212, 0.545212" stroke-dashoffset="0" stroke-opacity="1"
         d="M 5.8084648,4.980939 H 85.6"
         id="path71" />

      <path fill="none" stroke="#858585" stroke-width="0.526391" stroke-linecap="butt" stroke-linejoin="miter" stroke-miterlimit="4" stroke-dasharray="0.545212, 0.545212" stroke-dashoffset="0" stroke-opacity="1"
         d="M 5.808,14.980936 H 85.6"
         id="path73" />

      <path fill="none" stroke="#858585" stroke-width="0.526391" stroke-linecap="butt" stroke-linejoin="miter" stroke-miterlimit="4" stroke-dasharray="0.545212, 0.545212" stroke-dashoffset="0" stroke-opacity="1"
         d="M 5.808,24.980936 H 85.6"
         id="path75" />

      <path fill="none" stroke="#858585" stroke-width="0.526391" stroke-linecap="butt" stroke-linejoin="miter" stroke-miterlimit="4" stroke-dasharray="0.545212, 0.545212" stroke-dashoffset="0" stroke-opacity="1"
         d="M 5.808,34.980936 H 85.6"
         id="path77" />

      <path fill="none" stroke="#858585" stroke-width="0.526391" stroke-linecap="butt" stroke-linejoin="miter" stroke-miterlimit="4" stroke-dasharray="0.545212, 0.545212" stroke-dashoffset="0" stroke-opacity="1"
         d="M 5.808,44.981 85.6,44.980936"
         id="path79"/>
      
      <!-- Linhas verticais -->

      <path fill="none" stroke="#858585" stroke-width="0.241571px" stroke-linecap="butt" stroke-linejoin="miter" stroke-opacity="1"
         d="M 80.144214,-6.6683964e-8 V 44.981"
         id="path81" />

      <path fill="none" stroke="#858585" stroke-width="0.246885px" stroke-linecap="butt" stroke-linejoin="miter" stroke-opacity="1"
         d="M 10.267,-1e-7 V 44.981"
         id="path83"/>

      <path fill="none" stroke="#858585" stroke-width="0.241571px" stroke-linecap="butt" stroke-linejoin="miter" stroke-opacity="1"
         d="M 20.120785,-1.5001297e-7 V 44.981"
         id="path85" />

      <path fill="none" stroke="#858585" stroke-width="0.241571px" stroke-linecap="butt" stroke-linejoin="miter" stroke-opacity="1"
         d="M 30.124691,-3.16671e-7 V 44.981"
         id="path87" />

      <path fill="none" stroke="#858585" stroke-width="0.241571px" stroke-linecap="butt" stroke-linejoin="miter" stroke-opacity="1"
         d="M 40.301127,-3.16671e-7 V 44.981"
         id="path89" />

      <path fill="none" stroke="#858585" stroke-width="0.241571px" stroke-linecap="butt" stroke-linejoin="miter" stroke-opacity="1"
         d="M 50.132503,-3.16671e-7 V 44.981"
         id="path91" />

      <path fill="none" stroke="#858585" stroke-width="0.241571px" stroke-linecap="butt" stroke-linejoin="miter" stroke-opacity="1"
         d="M 60.136409,-4e-7 V 44.981"
         id="path93" />

      <path fill="none" stroke="#858585" stroke-width="0.241571px" stroke-linecap="butt" stroke-linejoin="miter" stroke-opacity="1"
         d="M 70.140315,-4e-7 V 44.981"
         id="path95" />

      <!-- -->

      <g id="g101" transform="translate(0,-5.2916669)">
         <path fill="#e46c8b" stroke-linecap="round"
            d="M 10.132812,19.167969 C 9.6734013,19.168228 9.3010399,19.540589 9.3007812,20 l 1.874e-4,30.546 H 10.965031 L 10.964844,20 c -2.59e-4,-0.459411 -0.372621,-0.831773 -0.832032,-0.832031 z"
            id="path97" />

         <path fill="#5967ff" stroke-linecap="round"
            d="M 10.132812,29.167969 C 9.6726387,29.167149 9.2990866,29.539826 9.2988281,30 V 50.546091 L 10.964844,50.546 V 30 c -2.59e-4,-0.459411 -0.372621,-0.831773 -0.832032,-0.832031 z"
            id="path99" />
      </g>
      <g id="g107" transform="translate(10.000172,3.1e-5)">
         <path fill="#e46c8b" stroke-linecap="round"
            d="M 10.131835,6.9971338 C 9.6724247,6.9973928 9.3000633,7.3697535 9.2998046,7.8291645 L 9.299992,45.25433 h 1.664062 L 10.963867,7.8291645 C 10.963608,7.3697535 10.591246,6.9973918 10.131835,6.9971338 Z"
            id="path103" />

         <path fill="#5967ff" stroke-linecap="round"
            d="m 10.132905,14.515975 c -0.4601728,-8.2e-4 -0.8337249,0.371857 -0.8339834,0.832031 v 29.906415 l 1.6660154,-9.1e-5 V 15.348006 c -2.59e-4,-0.459411 -0.372621,-0.831773 -0.832032,-0.832031 z"
            id="path105" />
      </g>
      <g id="g108">
         <path fill="#e46c8b" stroke-linecap="round"
            d="m 30.159667,29.75147 c -0.459411,2.59e-4 -0.831772,0.37262 -0.832031,0.832031 l 1.88e-4,14.671002 h 1.664062 L 30.991699,30.583501 C 30.99144,30.12409 30.619078,29.751728 30.159667,29.75147 Z"
            id="path109" />
         <path fill="#5967ff" stroke-linecap="round"
            d="m 30.159667,34.713637 c -0.460173,-8.2e-4 -0.833725,0.371857 -0.833984,0.832031 v 9.708926 l 1.666016,-9.1e-5 v -9.708835 c -2.59e-4,-0.459411 -0.372621,-0.831773 -0.832032,-0.832031 z"
            id="path111" />
      </g>
      <g id="g109">
         <path fill="#e46c8b" stroke-linecap="round"
            d="m 40.304659,14.93483 c -0.459412,2.59e-4 -0.831772,0.37262 -0.832031,0.832032 l 1.88e-4,29.487672 h 1.664062 L 41.136691,15.766862 C 41.136432,15.30745 40.764069,14.935088 40.304659,14.93483 Z"
            id="path113" />
         <path fill="#5967ff" stroke-linecap="round"
            d="m 40.305729,22.982844 c -0.460173,-8.2e-4 -0.833725,0.371857 -0.833984,0.832032 v 21.439749 l 1.666016,-9.1e-5 V 23.814876 c -2.59e-4,-0.459412 -0.372621,-0.831774 -0.832032,-0.832032 z"
            id="path115" />

      </g>
      <g id="g110">
         <path fill="#e46c8b" stroke-linecap="round"
            d="m 50.144231,24.459803 c -0.459411,2.59e-4 -0.831772,0.37262 -0.832031,0.832031 l 1.88e-4,19.962669 h 1.664062 l -1.87e-4,-19.962669 c -2.59e-4,-0.459411 -0.372621,-0.831773 -0.832032,-0.832031 z"
            id="path117" />
         <path fill="#5967ff" stroke-linecap="round"
            d="m 50.144231,27.051472 c -0.460173,-8.2e-4 -0.833725,0.371857 -0.833984,0.832031 v 17.371091 l 1.666016,-9.1e-5 v -17.371 c -2.59e-4,-0.459411 -0.372621,-0.831773 -0.832032,-0.832031 z"
            id="path119" />
      </g>
      <g id="g111">
         <path fill="#e46c8b" stroke-linecap="round"
            d="m 60.071505,24.45983 c -0.459411,2.59e-4 -0.831772,0.37262 -0.832031,0.832032 l 1.88e-4,19.962672 h 1.664062 L 60.903537,25.291862 C 60.903278,24.83245 60.530916,24.460088 60.071505,24.45983 Z"
            id="path121" />
         <path fill="#5967ff" stroke-linecap="round"
            d="m 60.071505,31.978677 c -0.460173,-8.2e-4 -0.833725,0.371857 -0.833984,0.832032 v 12.443916 l 1.666016,-9.1e-5 V 32.810709 c -2.59e-4,-0.459412 -0.372621,-0.831774 -0.832032,-0.832032 z"
            id="path123" />
      </g>

      <text xml:space="preserve" font-style="normal" font-weight="normal" font-size="2.82222px" line-height="1.25" font-family="sans-serif" fill="#858585" fill-opacity="1" stroke="none" stroke-width="0.264583"
         x="0.07223013"
         y="6.092926"
         id="text5804">
         
         <tspan
            id="tspan5802"
            style="font-size:2.82222px;fill:#858585;fill-opacity:1;stroke-width:0.264583"
            x="0.07223013"
            y="6.092926">400</tspan>

      </text>
      <text
         xml:space="preserve"
         style="font-style:normal;font-weight:normal;font-size:2.82222px;line-height:1.25;font-family:sans-serif;fill:#858585;fill-opacity:1;stroke:none;stroke-width:0.264583"
         x="0.07223013"
         y="16.05261"
         id="text5804-4"><tspan
            id="tspan5802-2"
            style="font-size:2.82222px;fill:#858585;fill-opacity:1;stroke-width:0.264583"
            x="0.07223013"
            y="16.05261">300</tspan></text>
      <text
         xml:space="preserve"
         style="font-style:normal;font-weight:normal;font-size:2.82222px;line-height:1.25;font-family:sans-serif;fill:#858585;fill-opacity:1;stroke:none;stroke-width:0.264583"
         x="0.07223013"
         y="26.012304"
         id="text5804-1"><tspan
            id="tspan5802-0"
            style="font-size:2.82222px;fill:#858585;fill-opacity:1;stroke-width:0.264583"
            x="0.07223013"
            y="26.012304">200</tspan></text>
      <text
         xml:space="preserve"
         style="font-style:normal;font-weight:normal;font-size:2.82222px;line-height:1.25;font-family:sans-serif;fill:#858585;fill-opacity:1;stroke:none;stroke-width:0.264583"
         x="0.07223013"
         y="35.971996"
         id="text5804-3"><tspan
            id="tspan5802-4"
            style="font-size:2.82222px;fill:#858585;fill-opacity:1;stroke-width:0.264583"
            x="0.07223013"
            y="35.971996">100</tspan></text>
      <text
         xml:space="preserve"
         style="font-style:normal;font-weight:normal;font-size:2.82222px;line-height:1.25;font-family:sans-serif;fill:#858585;fill-opacity:1;stroke:none;stroke-width:0.264583"
         x="3.6606388"
         y="45.931686"
         id="text5804-2"><tspan
            id="tspan5802-5"
            style="font-size:2.82222px;fill:#858585;fill-opacity:1;stroke-width:0.264583"
            x="3.6606388"
            y="45.931686">0</tspan></text>
      <text
         xml:space="preserve"
         style="font-style:normal;font-weight:normal;font-size:2.82222px;line-height:1.25;font-family:sans-serif;fill:#858585;fill-opacity:1;stroke:none;stroke-width:0.264583"
         x="7.3866529"
         y="49.219456"
         id="text5804-9"><tspan
            id="tspan5802-01"
            style="font-size:2.82222px;fill:#858585;fill-opacity:1;stroke-width:0.264583"
            x="7.3866529"
            y="49.219456">MAY</tspan></text>
      <text
         xml:space="preserve"
         style="font-style:normal;font-weight:normal;font-size:2.82222px;line-height:1.25;font-family:sans-serif;fill:#858585;fill-opacity:1;stroke:none;stroke-width:0.264583"
         x="17.782122"
         y="49.219456"
         id="text5804-47"><tspan
            id="tspan5802-29"
            style="font-size:2.82222px;fill:#858585;fill-opacity:1;stroke-width:0.264583"
            x="17.782122"
            y="49.219456">JUN</tspan></text>
      <text
         xml:space="preserve"
         style="font-style:normal;font-weight:normal;font-size:2.82222px;line-height:1.25;font-family:sans-serif;fill:#858585;fill-opacity:1;stroke:none;stroke-width:0.264583"
         x="27.835833"
         y="49.219456"
         id="text5804-29"><tspan
            id="tspan5802-43"
            style="font-size:2.82222px;fill:#858585;fill-opacity:1;stroke-width:0.264583"
            x="27.835833"
            y="49.219456">JUL</tspan></text>
      <text
         xml:space="preserve"
         style="font-style:normal;font-weight:normal;font-size:2.82222px;line-height:1.25;font-family:sans-serif;fill:#858585;fill-opacity:1;stroke:none;stroke-width:0.264583"
         x="37.138519"
         y="49.262177"
         id="text5804-11"><tspan
            id="tspan5802-3"
            style="font-size:2.82222px;fill:#858585;fill-opacity:1;stroke-width:0.264583"
            x="37.138519"
            y="49.262177">AGO</tspan></text>
      <text
         xml:space="preserve"
         style="font-style:normal;font-weight:normal;font-size:2.82222px;line-height:1.25;font-family:sans-serif;fill:#858585;fill-opacity:1;stroke:none;stroke-width:0.264583"
         x="47.409271"
         y="49.256664"
         id="text5804-8"><tspan
            id="tspan5802-8"
            style="font-size:2.82222px;fill:#858585;fill-opacity:1;stroke-width:0.264583"
            x="47.409271"
            y="49.256664">SEP</tspan></text>
      <text
         xml:space="preserve"
         style="font-style:normal;font-weight:normal;font-size:2.82222px;line-height:1.25;font-family:sans-serif;fill:#858585;fill-opacity:1;stroke:none;stroke-width:0.264583"
         x="57.042683"
         y="49.262177"
         id="text5804-290"><tspan
            id="tspan5802-55"
            style="font-size:2.82222px;fill:#858585;fill-opacity:1;stroke-width:0.264583"
            x="57.042683"
            y="49.262177">OCT</tspan></text>
      <text
         xml:space="preserve"
         style="font-style:normal;font-weight:normal;font-size:2.82222px;line-height:1.25;font-family:sans-serif;fill:#858585;fill-opacity:1;stroke:none;stroke-width:0.264583"
         x="66.96273"
         y="49.262177"
         id="text5804-290-1"><tspan
            id="tspan5802-55-8"
            style="font-size:2.82222px;fill:#858585;fill-opacity:1;stroke-width:0.264583"
            x="66.96273"
            y="49.262177">NOV</tspan></text>
      <text
         xml:space="preserve"
         style="font-style:normal;font-weight:normal;font-size:2.82222px;line-height:1.25;font-family:sans-serif;fill:#858585;fill-opacity:1;stroke:none;stroke-width:0.264583"
         x="76.882774"
         y="49.262177"
         id="text5804-290-2">
         
         <tspan
            id="tspan5802-55-4"
            style="font-size:2.82222px"
            fill="#858585"
            stroke-width="0.264583"
            x="76.882774"
            y="49.262177">DEC</tspan>
            </text>
   </g>
</svg>
